<?xml version="1.0" encoding="utf-8"?>
<!-- Generator: Adobe Illustrator 21.0.0, SVG Export Plug-In . SVG Version: 6.00 Build 0)  -->
<svg version="1.1" xmlns="http://www.w3.org/2000/svg" xmlns:xlink="http://www.w3.org/1999/xlink" x="0px" y="0px"
	 viewBox="0 0 158 190.2" style="enable-background:new 0 0 158 190.2;" xml:space="preserve">
<g id="Layer_1">
	<g>
		<g>
			<g>
				<path d="M14.6,158.1c0.3,0.4,0.6,0.9,0.8,1.3c-0.5,0.2-1.1,0.4-1.6,0.7c2.4,0.6,5.3,4.8,7.2,6.5c2.3,2,4.6,4,6.9,6
					c2.9,2.4,8.8,9.1,13.1,8.3c4.8-0.9,5.7-8.9,6.9-12.6c1.1-3.5,2.3-7,3.4-10.4c0.6-1.9,1.2-3.8,1.9-5.7c0.2-0.6,0.4-1.3,0.6-1.9
					c1.3-2,0.9-2.5-1.2-1.6c-0.8-0.8-1.5-1.5-2.3-2.3c0.1,0.3,0.2,0.5,0.3,0.8c0.3-1.1,0.6-2.1,0.8-3.2c0.6,0,1.1-0.1,1.7-0.1
					c-2-1.1-4.7,0.7-4,3.1c0.5,1.8,1.3,2.5,3.1,3.1c1.1,0.3,2.4,0,3.2-0.8c0.2-0.2,0.4-0.4,0.6-0.6c0.7-0.8,1.2-2.1,0.8-3.2
					c-1.5-3.9-6-4.6-8.1-0.7c-1.8,3.4-2.5,7.8-3.6,11.4c-1.3,4.1-2.6,8.2-3.9,12.4c-0.6,1.8-0.9,4-1.8,5.7c-0.6,1.1-0.4,1.3,0.6,0.6
					c-1-0.7-2-1.3-3.1-2c-3-2-6-4.1-9-6.3c-3.3-2.4-6.6-4.9-9.8-7.5c-1.5-1.2-2.5-2.3-4.4-1.7c-0.6,0.2-1.1,0.8-1.1,1.4
					c0,0.9,0.3,1.3,1,1.8c0.5,0.3,1.1,0.1,1.5-0.2c0.1-0.1,0.1-0.1,0.2-0.2C16.1,159.4,15.6,158,14.6,158.1L14.6,158.1z"/>
			</g>
		</g>
		<g>
			<g>
				<path d="M42.1,177.5c-3.3-11.1-3.6-22.1-1.3-33.4c0.6-3-4-4.3-4.6-1.3c-2.6,11.9-1.5,24.2,2.9,35.6
					C39.7,180.3,42.7,179.5,42.1,177.5L42.1,177.5z"/>
			</g>
		</g>
		<g>
			<g>
				<path d="M42.1,129.4c1.4-4.9,3-9.8,5-14.5c1.7-3.9,4.3-7.6,5.2-11.7c0.4-1.8-1.9-3.5-3.3-1.9c-2.9,3.2-4.3,8-5.7,12.1
					c-1.7,5-3,10.1-4,15.3C39,130.4,41.6,131.2,42.1,129.4L42.1,129.4z"/>
			</g>
		</g>
		<g>
			<g>
				<path d="M56.6,91.1c4.7-10.2,10.8-19,18.2-27.3c1.9-2.2-1.2-5.4-3.2-3.2c-7.9,8.4-13.7,18.7-17.4,29.6
					C53.8,91.5,56,92.5,56.6,91.1L56.6,91.1z"/>
			</g>
		</g>
		<g>
			<g>
				<path d="M86.1,53.4c3.3-1.4,6.3-3.5,9.4-5.4c2.4-1.4,6.8-5.1,9.6-4.3c1.4,0.4,2.9-0.7,2.9-2.2c0-0.2,0-0.4,0-0.6
					c0-1.3-0.9-2.2-2-2.6c-3.5-1.3-7.2,2.2-9.8,4c-3.9,2.7-8.3,5.6-11.2,9.3C84.5,52.4,85,53.9,86.1,53.4L86.1,53.4z"/>
			</g>
		</g>
		<g>
			<g>
				<path d="M122.1,33.4c4.5-0.8,9.1-1.7,13.6-2.5c3.6-0.7,9-2.9,12.4-2.1c1.7,0.4,3-0.7,3.1-2.4c0-0.2,0-0.4,0-0.6
					c0.1-1.4-1-2.5-2.2-2.9c-3.6-1.3-8.5,1.3-12,2.3c-5.4,1.5-10.7,3.1-16.1,4.7C118.8,30.5,119.8,33.8,122.1,33.4L122.1,33.4z"/>
			</g>
		</g>
	</g>
</g>
<g id="testo">
	<g>
		<path d="M19.4,138.9c0.1-0.3,0.2-0.5,0.6-0.5c0.5-0.1,0.8-0.3,0.9-0.4s0.3-0.4,0.5-0.7c0.2-0.3,0.3-0.7,0.4-1.2
			c0.2-1.1,0.1-2.1-0.2-3s-0.9-1.5-1.7-1.7c-0.6-0.1-1.1,0.1-1.5,0.6c-0.5,0.5-0.8,1.3-1,2.3c-0.2,0.9-0.6,1.6-1,2.1s-1,0.6-1.6,0.5
			c-1-0.2-1.9-1-2.5-2.4c-0.6-1.4-0.8-2.7-0.6-3.9c0.1-0.6,0.4-1.2,0.7-1.9s0.7-0.9,1-0.8c0.2,0,0.3,0.1,0.5,0.3s0.2,0.4,0.1,0.7
			c0,0.2-0.2,0.6-0.4,1.1c-0.2,0.5-0.4,0.9-0.4,1.1c-0.2,1-0.1,1.9,0.2,2.7s0.8,1.2,1.3,1.3c0.3,0.1,0.6-0.1,0.8-0.4
			c0.2-0.3,0.5-1.1,0.8-2.1c0.3-1,0.8-1.8,1.4-2.3c0.7-0.5,1.4-0.7,2.2-0.5c1.3,0.3,2.3,1.1,3,2.5c0.7,1.4,0.8,2.9,0.5,4.6
			c-0.2,1.1-0.6,1.9-1.1,2.6s-1.2,1-1.8,0.8c-0.4-0.1-0.6-0.2-0.7-0.4C19.4,139.4,19.4,139.2,19.4,138.9z"/>
		<path d="M22.2,127.3c1-0.2,1.7-0.9,2-2.1c0.1-0.4,0.1-0.9,0.1-1.6c0-0.6-0.1-1.1-0.3-1.3c-0.2-0.3-0.3-0.5-0.3-0.8
			c0-0.2,0.1-0.3,0.3-0.4s0.3-0.1,0.5-0.1c0.5,0.1,0.9,0.7,1.1,1.8c0.2,1.1,0.2,2,0,2.9c-0.3,1.1-0.8,2-1.5,2.5
			c-0.7,0.5-1.5,0.6-2.4,0.4c-1.3-0.3-2.5-1.1-3.5-2.3s-1.4-2.5-1-4c0.2-0.9,0.6-1.6,1-2c0.4-0.4,1-0.6,1.5-0.4
			c0.5,0.1,0.8,0.4,1.1,0.8c0.3,0.4,0.4,0.8,0.5,1.3c0.1,0.4,0.2,1,0.3,1.7L22.2,127.3z M20.8,126.9l-0.5-2.9
			c-0.2-1.2-0.4-2.1-0.6-2.6c-0.5,0.3-0.9,0.8-1.1,1.7C18.2,124.3,18.9,125.6,20.8,126.9z"/>
		<path d="M28.7,114l3.5,1.9c0.5,0.3,0.7,0.7,0.5,1.2c-0.1,0.2-0.2,0.4-0.4,0.5c-0.2,0.1-0.4,0-0.6-0.1l-5.9-3.2
			c-0.8-0.4-1.8-0.9-3-1.5l-1.5-0.7c-0.3-0.1-0.6-0.4-0.8-0.7c-0.2-0.3-0.3-0.6-0.2-0.9c0.1-0.4,0.4-0.5,0.8-0.4
			c0.2,0.1,0.5,0.2,0.8,0.5c-0.3-1.2-0.3-2.2,0-3c0.5-1.6,1.8-2,3.8-1.3c1.6,0.6,2.8,1.4,3.5,2.6c0.7,1.1,0.8,2.3,0.4,3.5
			C29.4,112.9,29.1,113.4,28.7,114z M23.6,111.3c0.8,0.3,1.9,0.9,3.6,1.8c0.4-0.4,0.7-0.9,0.9-1.5c0.3-0.8,0.2-1.5-0.3-2.2
			c-0.5-0.6-1.3-1.2-2.4-1.5c-1.1-0.4-1.7-0.2-2,0.5c-0.1,0.4-0.2,0.7-0.2,1.2C23.2,109.9,23.3,110.5,23.6,111.3z"/>
		<path d="M28.2,97.9c0.2,0.1,0.4,0.3,0.5,0.5c0.2,0.2,0.2,0.5,0.1,0.8c-0.1,0.4-0.4,0.5-0.8,0.3l-0.4-0.2c-0.1,0-0.2-0.1-0.3-0.2
			l-0.6-0.3c-0.5,1.6-0.2,3,0.8,4.3l3.9,2.4c0.5,0.3,0.6,0.7,0.4,1.2c-0.2,0.4-0.5,0.5-1,0.2l-5-3c-1.1-0.7-1.8-1.1-1.9-1.3
			c-0.1-0.2-0.1-0.4,0-0.7c0.2-0.4,0.5-0.5,1.1-0.3c0.1,0,0.3,0.1,0.4,0.2c-0.5-1.5-0.5-2.9,0-4.1c0.3-0.7,0.8-0.8,1.6-0.5
			c0.2,0.1,0.4,0.2,0.7,0.3L28.2,97.9z"/>
		<path d="M32.4,97.5c1,0,1.8-0.6,2.3-1.7c0.2-0.4,0.3-0.9,0.4-1.5s0.1-1.1-0.1-1.4c-0.2-0.3-0.2-0.6-0.1-0.8
			c0.1-0.2,0.2-0.3,0.4-0.3c0.2-0.1,0.3-0.1,0.5,0c0.5,0.2,0.8,0.9,0.8,2c0,1.1-0.2,2-0.6,2.9c-0.5,1.1-1.1,1.8-1.9,2.2
			c-0.8,0.4-1.6,0.4-2.5,0c-1.2-0.6-2.2-1.6-3-2.9c-0.8-1.4-0.9-2.7-0.3-4.1c0.4-0.9,0.9-1.5,1.4-1.8c0.5-0.3,1-0.4,1.6-0.1
			c0.4,0.2,0.8,0.5,0.9,1s0.3,0.9,0.3,1.3c0,0.4,0,1,0,1.7L32.4,97.5z M31.1,96.8l0-3c0-1.3,0-2.1-0.1-2.7c-0.6,0.2-1,0.7-1.4,1.4
			C29,93.8,29.5,95.2,31.1,96.8z"/>
		<path d="M36.3,82.6c0.4,0.3,0.8,0.6,1.3,0.9l1.9,1.2c1,0.6,1.6,1,1.8,1.2c0.2,0.2,0.4,0.4,0.4,0.6c0,0.2,0,0.4-0.1,0.7
			c-0.2,0.4-0.5,0.5-0.9,0.3c0,0-0.2-0.2-0.6-0.4c-0.4-0.3-1.1-0.7-2-1.3c-1.1-0.7-1.9-1.3-2.5-1.7c-0.2-0.2-0.4-0.3-0.6-0.4
			c-0.2-0.1-0.4-0.2-0.6-0.2c-0.1,0.5,0,1,0.1,1.6l0.4,1.6l0.2,0.7c0.2,0.1,0.6,0.5,1.1,1c0.7,0.7,1.3,1.1,1.7,1.3
			c0.3,0.2,0.5,0.3,0.7,0.4s0.2,0.3,0.2,0.5s0,0.4-0.1,0.6c-0.2,0.4-0.7,0.4-1.4,0.1c-0.4-0.2-1.1-0.7-2-1.6c-0.7-0.6-1.1-1-1.2-1.1
			c-0.2-0.1-0.5-0.3-1-0.6c-1.1-0.8-1.8-1.3-2.1-1.7s-0.3-0.7-0.1-0.9c0.1-0.2,0.3-0.3,0.5-0.3s0.4,0,0.6,0.1
			c0.1,0.1,0.3,0.3,0.7,0.6c0.1,0.1,0.1,0.1,0.2,0.1l0.7,0.5c-0.3-0.6-0.6-1.3-0.7-2.1c-0.1-0.8-0.1-1.4,0.1-1.7
			c0.4-0.8,1.1-1,1.9-0.8c-0.3-1-0.3-2,0.3-3c0.5-1,1.4-1.2,2.5-0.5c0.9,0.5,2,1.2,3.3,1.9c1.6,1,2.5,1.5,2.5,1.6
			c0.1,0.1,0.2,0.3,0.2,0.5c0,0.2,0,0.4-0.1,0.6c-0.2,0.4-0.5,0.5-1,0.2c-0.8-0.4-1.5-0.9-2.2-1.3l-2.2-1.4
			c-0.3-0.2-0.7-0.3-1.1-0.5c-0.4-0.1-0.7-0.1-0.8,0.1c-0.1,0.2-0.1,0.6-0.1,1.2C36.2,81.8,36.3,82.3,36.3,82.6z"/>
		<path d="M36.1,72.1c-0.2-0.2-0.4-0.4-0.5-0.7c-0.1-0.3,0-0.6,0.1-0.8c0.1-0.2,0.3-0.3,0.5-0.4s0.4,0,0.6,0.1
			c0.2,0.2,0.4,0.4,0.5,0.7s0,0.6-0.1,0.9c-0.1,0.2-0.3,0.3-0.5,0.4C36.5,72.3,36.3,72.3,36.1,72.1z M45.1,79.2
			c-0.2,0.4-0.6,0.5-0.9,0.3l-2-1.6c-0.5-0.4-1.2-1-1.9-1.8c-0.7-0.7-1.2-1.1-1.5-1.4c-0.4-0.4-0.5-0.8-0.2-1.2
			c0.2-0.4,0.6-0.5,0.9-0.2c0.1,0.1,0.7,0.6,1.6,1.5c0.8,0.8,1.5,1.4,1.9,1.8c0.8,0.6,1.4,1.1,1.8,1.5
			C45.3,78.3,45.4,78.7,45.1,79.2z"/>
		<path d="M49.3,63.1c0.4,0.4,0.7,0.8,1.1,1.1l1.7,1.4c0.9,0.7,1.4,1.2,1.6,1.4c0.2,0.2,0.3,0.4,0.3,0.7c0,0.2,0,0.4-0.2,0.6
			c-0.3,0.4-0.6,0.4-0.9,0.1c0,0-0.2-0.2-0.5-0.5c-0.3-0.3-0.9-0.9-1.8-1.6c-1-0.9-1.7-1.5-2.2-2c-0.2-0.2-0.4-0.4-0.5-0.5
			c-0.2-0.2-0.4-0.3-0.6-0.3c-0.1,0.4-0.2,1-0.1,1.6l0.2,1.6l0.1,0.7c0.2,0.2,0.5,0.6,1,1.2c0.6,0.8,1.1,1.3,1.5,1.6
			c0.3,0.2,0.5,0.4,0.6,0.5s0.2,0.3,0.2,0.5c0,0.2-0.1,0.4-0.2,0.6c-0.3,0.4-0.7,0.3-1.4-0.1c-0.4-0.3-0.9-0.9-1.7-1.8
			c-0.6-0.7-0.9-1.1-1.1-1.3c-0.2-0.2-0.5-0.4-0.9-0.8c-1-0.9-1.6-1.6-1.8-2c-0.2-0.4-0.2-0.7,0-1c0.1-0.2,0.3-0.2,0.5-0.3
			c0.2,0,0.4,0,0.6,0.2c0.1,0.1,0.3,0.3,0.6,0.7c0.1,0.1,0.1,0.1,0.1,0.2l0.6,0.6c-0.2-0.7-0.4-1.4-0.4-2.2c0-0.8,0.1-1.4,0.4-1.7
			c0.5-0.7,1.2-0.9,2-0.5c-0.2-1.1,0-2,0.7-2.9c0.7-0.9,1.5-1,2.6-0.2c0.8,0.6,1.8,1.4,3,2.4c1.5,1.2,2.2,1.8,2.3,1.9
			c0.1,0.1,0.2,0.3,0.2,0.5s-0.1,0.4-0.2,0.6c-0.3,0.4-0.6,0.4-1,0.1c-0.7-0.5-1.4-1.1-2-1.6l-2-1.7c-0.3-0.2-0.6-0.4-1-0.6
			c-0.4-0.2-0.7-0.2-0.8,0c-0.1,0.1-0.2,0.5-0.3,1.2C49.3,62.2,49.2,62.7,49.3,63.1z"/>
		<path d="M50.6,52.7c-0.2-0.2-0.3-0.4-0.4-0.8c0-0.3,0.1-0.6,0.3-0.8c0.2-0.2,0.4-0.3,0.6-0.3s0.4,0,0.6,0.2
			c0.2,0.2,0.3,0.4,0.4,0.8c0,0.3-0.1,0.6-0.3,0.8c-0.2,0.2-0.3,0.3-0.6,0.3C51,52.9,50.8,52.8,50.6,52.7z M58.5,60.9
			c-0.3,0.4-0.6,0.4-0.9,0.1l-1.7-1.9c-0.5-0.5-1-1.2-1.6-2c-0.6-0.8-1-1.3-1.2-1.6c-0.4-0.4-0.4-0.9,0-1.3c0.3-0.4,0.6-0.4,0.9-0.1
			c0.1,0.1,0.6,0.7,1.4,1.7c0.7,1,1.3,1.6,1.6,2c0.7,0.7,1.2,1.3,1.6,1.8C58.8,60.1,58.8,60.5,58.5,60.9z"/>
		<path d="M57.6,45c-0.2-0.2-0.3-0.5-0.3-0.8c0-0.3,0.1-0.6,0.3-0.8c0.2-0.2,0.4-0.3,0.6-0.3c0.2,0,0.4,0.1,0.6,0.2
			c0.2,0.2,0.3,0.5,0.3,0.8c0,0.3-0.1,0.6-0.3,0.8c-0.2,0.2-0.4,0.3-0.6,0.3C58,45.3,57.8,45.2,57.6,45z M64.9,53.8
			c-0.3,0.3-0.6,0.4-0.9,0.1l-1.6-2c-0.4-0.5-0.9-1.2-1.5-2.1c-0.5-0.8-0.9-1.4-1.1-1.6c-0.3-0.5-0.3-0.9,0.1-1.3
			c0.3-0.3,0.6-0.4,1-0.1c0.1,0.1,0.5,0.7,1.3,1.8c0.7,1,1.2,1.7,1.5,2.1c0.6,0.8,1.1,1.4,1.4,1.9C65.3,53,65.3,53.4,64.9,53.8z"/>
		<path d="M64.5,44.3c0-1.7,0.3-2.8,1-3.5c0.9-0.8,1.8-0.7,2.8,0.4c0.2,0.3,0.5,0.6,0.8,1l0.9,1.3c0.2,0.4,0.6,0.8,1.1,1.4
			c0.8,0.8,1.2,1.4,1.3,1.7s0,0.6-0.3,0.9c-0.4,0.3-0.7,0.3-1-0.1L70,46c-0.3-0.4-0.7-0.9-1.1-1.5c-0.4-0.6-0.7-1.1-0.8-1.3
			c-0.2-0.3-0.4-0.5-0.5-0.7c-0.4-0.4-0.7-0.5-1-0.3c-0.5,0.5-0.7,1.4-0.6,2.6c0.1,1.2,0.4,2.2,0.8,2.8c0.1,0.1,0.1,0.3,0.2,0.4
			c0.2,0.4,0.4,0.7,0.6,1l0.7,0.8c0.2,0.2,0.3,0.5,0.3,0.7c0,0.2-0.1,0.5-0.3,0.6c-0.3,0.3-0.7,0.3-1,0L66.3,50
			c-0.3-0.4-0.8-1.2-1.5-2.3c-0.7-1.1-1.2-2-1.7-2.7l-0.4-0.6c-0.2-0.2-0.2-0.4-0.2-0.7c0-0.2,0.1-0.5,0.3-0.6
			c0.4-0.3,0.8-0.2,1.2,0.3L64.5,44.3z"/>
		<path d="M77,37.9l1.9,3.8c0.2,0.4,0.4,0.9,0.5,1.3c0.1,0.5,0.2,0.9,0.2,1.3c0,0.4,0,0.8-0.1,1.2s-0.3,0.8-0.6,1.2
			c-0.3,0.4-0.7,0.8-1.2,1.2c-1.4,1.2-2.3,1.5-2.7,1.1c-0.1-0.1-0.2-0.3-0.2-0.6c0-0.2,0.1-0.4,0.3-0.6c0.1-0.1,0.2-0.1,0.3-0.2
			c0.7-0.4,1.3-0.8,1.7-1.1c0.7-0.6,1.1-1.4,1.1-2.2s-0.5-2.1-1.4-3.6c0.1,1.4-0.3,2.4-1,3c-0.7,0.6-1.4,0.8-2.1,0.7
			c-0.7-0.1-1.4-0.4-1.9-1.1c-0.9-1.1-1.4-2.5-1.4-4.1c0-1.6,0.7-3,2.1-4.1c0.8-0.7,1.5-0.9,2-0.6c0.4-0.3,0.7-0.3,1,0.1
			c0.2,0.2,0.6,1.1,1.2,2.6C76.9,37.6,77,37.8,77,37.9z M73.1,36.5c-0.9,0.8-1.3,1.7-1.3,2.8c0,1.1,0.4,2.1,1.2,3
			c0.7,0.8,1.4,0.9,2.2,0.3c0.4-0.3,0.6-0.9,0.7-1.6c0.1-0.7,0.1-1.4-0.1-1.9c-0.2-0.6-0.6-1.6-1.3-3C74,36,73.5,36.2,73.1,36.5z"/>
		<path d="M82.9,30.4c0.1,0.2,0.2,0.4,0.2,0.7s-0.1,0.5-0.4,0.7c-0.3,0.2-0.6,0.2-0.8-0.1l-0.2-0.4c-0.1-0.1-0.1-0.2-0.2-0.3
			l-0.3-0.6c-1.2,1.1-1.8,2.5-1.6,4.1l2.1,4.1c0.3,0.5,0.2,0.9-0.3,1.3c-0.4,0.3-0.7,0.2-1-0.3l-2.7-5.2c-0.6-1.2-0.9-1.9-0.9-2.1
			c0-0.2,0.1-0.4,0.4-0.6c0.4-0.3,0.7-0.1,1.1,0.4c0.1,0.1,0.2,0.2,0.2,0.4c0.3-1.5,1.1-2.7,2.1-3.5c0.6-0.4,1.1-0.3,1.6,0.4
			c0.1,0.2,0.3,0.4,0.4,0.6L82.9,30.4z"/>
		<path d="M91.1,31.8c-0.7,1.1-1.2,1.8-1.7,2.1c-1.7,1.1-3.1,0.9-4.2-0.8c-1-1.5-1.3-3.1-1-4.7s1.1-2.8,2.3-3.5
			c0.4-0.3,1-0.5,1.6-0.6c0.6-0.1,1,0,1.2,0.3c0.1,0.2,0.2,0.4,0.1,0.6c0,0.2,0.2,0.8,0.6,1.8c0.4,1,0.7,1.7,1,2
			c0.3,0.5,0.8,1,1.6,1.7l0.1,0.1c0.2,0.5,0.1,0.9-0.4,1.1c-0.1,0-0.3,0-0.6,0C91.6,32,91.3,31.9,91.1,31.8z M88.1,26.1
			c-0.4,0-0.7,0.1-0.9,0.2c-0.8,0.5-1.3,1.3-1.5,2.5c-0.2,1.1,0,2.2,0.7,3.3c0.7,1,1.4,1.2,2.3,0.7c0.7-0.5,1.2-1.1,1.4-2
			C89,28.6,88.3,27.1,88.1,26.1z"/>
		<path d="M93.1,22.9c0.4-1.6,1-2.7,1.8-3.2c1-0.6,1.9-0.2,2.7,1.1c0.2,0.3,0.4,0.7,0.5,1.1l0.5,1.5c0.1,0.4,0.4,0.9,0.8,1.6
			c0.6,1,0.9,1.7,0.9,2c0,0.3-0.2,0.6-0.5,0.8c-0.4,0.2-0.8,0.1-1-0.4L98,25.9c-0.2-0.4-0.5-1-0.7-1.7c-0.3-0.7-0.4-1.2-0.5-1.5
			c-0.1-0.3-0.2-0.6-0.4-0.8c-0.3-0.5-0.6-0.7-0.9-0.6c-0.6,0.4-1,1.1-1.2,2.3c-0.2,1.2-0.2,2.2,0.1,2.9c0,0.1,0.1,0.3,0.1,0.4
			c0.1,0.4,0.2,0.7,0.4,1.1l0.4,1c0.1,0.3,0.1,0.5,0.1,0.8s-0.2,0.4-0.4,0.5c-0.4,0.2-0.7,0.2-0.9-0.2l-0.6-1.2
			c-0.2-0.5-0.5-1.3-0.9-2.6c-0.4-1.3-0.7-2.3-1.1-3l-0.3-0.6c-0.1-0.2-0.1-0.5,0-0.7c0.1-0.2,0.2-0.4,0.5-0.5
			c0.4-0.3,0.8,0,1.1,0.6L93.1,22.9z"/>
		<path d="M107.1,23.1c-0.5,0.9-1.2,1.6-2.1,2c-0.9,0.5-1.8,0.5-2.7,0.2c-0.8-0.3-1.4-0.9-1.9-1.7c-0.6-1.3-0.8-2.7-0.4-4.2
			c0.4-1.5,1.2-2.5,2.5-3.2c0.8-0.4,1.6-0.4,2.3-0.1c-0.7-2.6-1-4.2-1.1-4.7c-0.1-0.5,0.1-0.9,0.5-1.1c0.4-0.2,0.6-0.1,0.8,0.2
			c0.2,0.3,0.6,2.1,1.3,5.3c0.2,1.2,0.6,2.4,1,3.6c0.4,1.2,0.8,2.1,1.1,2.8l0,0.1c0.1,0.2,0.1,0.4,0,0.6s-0.2,0.4-0.5,0.5
			C107.7,23.6,107.4,23.5,107.1,23.1z M106.3,21.3l-0.4-1.4l-0.5-1.9c-0.6-0.7-1.4-0.8-2.3-0.4c-1.1,0.5-1.7,1.3-1.8,2.2
			c-0.1,1,0,1.8,0.4,2.6c0.2,0.5,0.6,0.9,1.2,1.1s1.1,0.2,1.7-0.1C105.3,23.2,105.9,22.4,106.3,21.3z"/>
		<path d="M108.5,10.7c-0.1-0.3-0.1-0.6,0-0.9c0.1-0.3,0.3-0.5,0.6-0.6c0.2-0.1,0.5-0.1,0.7,0c0.2,0.1,0.3,0.2,0.4,0.4
			c0.1,0.3,0.1,0.6,0,0.9s-0.3,0.5-0.6,0.6c-0.2,0.1-0.4,0.1-0.6,0C108.8,11.1,108.6,10.9,108.5,10.7z M111.7,21.7
			c-0.4,0.2-0.7,0.1-0.9-0.3l-0.7-2.5c-0.2-0.6-0.4-1.5-0.5-2.6c-0.2-1-0.3-1.6-0.4-2c-0.1-0.5,0.1-0.9,0.6-1.1
			c0.4-0.2,0.7-0.1,0.9,0.3c0.1,0.1,0.2,0.8,0.4,2.1c0.2,1.2,0.4,2,0.5,2.6c0.3,0.9,0.5,1.7,0.6,2.3
			C112.4,21.1,112.2,21.5,111.7,21.7z"/>
		<path d="M117.9,11.2c-0.2,0.1-0.4,0.3-0.7,0.5c-0.8,0.6-1.4,1.1-1.7,1.4c-0.3,0.4-0.4,0.7-0.3,1.1c0.1,0,0.3,0,0.5,0
			c1.3-0.2,2.3-0.2,3,0c0.7,0.2,1.2,0.7,1.5,1.5c0.3,0.9,0.2,1.8-0.3,2.6c-0.5,0.8-1.4,1.4-2.5,1.8c-0.8,0.3-1.5,0.4-2.2,0.3
			s-1.1-0.3-1.3-0.7c-0.1-0.2-0.1-0.5,0.1-0.8c0.1-0.3,0.3-0.4,0.5-0.5c0.2-0.1,0.4,0,0.7,0.2c0.1,0.1,0.4,0.1,0.8,0s0.7-0.1,1-0.2
			c1.4-0.5,1.9-1.1,1.7-1.8c-0.2-0.6-0.8-0.9-1.7-0.8l-0.8,0.1c-0.9,0.1-1.5,0.1-1.8-0.1s-0.5-0.4-0.6-0.7c-0.2-0.5-0.2-1-0.1-1.5
			c0.1-0.5,0.3-1,0.7-1.4c0.4-0.4,1-0.9,1.8-1.5c0.7-0.5,1.1-0.8,1.4-1c0.2-0.2,0.4-0.3,0.7-0.4c0.4-0.2,0.7,0,0.9,0.4l0.2,0.6
			l0.2,0.5c0.2,0.5,0.2,0.8,0.1,1c-0.1,0.2-0.3,0.4-0.5,0.5c-0.3,0.1-0.5,0.1-0.6,0S118.1,11.7,117.9,11.2z"/>
		<path d="M126.8,15.1l0.9-0.8c0.2-0.1,0.3-0.2,0.3-0.2c0.2,0,0.3,0,0.5,0.1c0.2,0.1,0.3,0.2,0.3,0.4c0.1,0.4-0.2,0.9-0.9,1.6
			c-0.8,0.6-1.4,1-1.8,1.1c-1,0.3-1.9,0.2-2.7-0.2c-0.8-0.4-1.3-1-1.5-1.9c-0.4-1.2-0.2-2.7,0.4-4.4c0.6-1.7,1.5-2.6,2.5-2.9
			c0.6-0.2,1.2-0.2,1.9-0.1c0.7,0.1,1.1,0.3,1.2,0.7c0.1,0.2,0,0.4-0.1,0.7c-0.1,0.2-0.3,0.4-0.5,0.4c-0.2,0.1-0.5,0-0.8-0.2
			s-0.8-0.2-1.6,0c-0.6,0.2-1,0.9-1.5,2.1c-0.4,1.2-0.5,2.2-0.3,2.9c0.1,0.5,0.5,0.9,0.9,1.1s1,0.3,1.7,0.1
			C126.2,15.6,126.5,15.4,126.8,15.1z"/>
		<path d="M130.1,12.6c-0.3-1.4-0.1-2.8,0.6-4.2s1.7-2.2,3.2-2.5c0.8-0.2,1.5,0,2,0.5c0.6,0.5,0.9,1.2,1.1,2.1
			c0.3,1.5,0.2,3-0.4,4.3c-0.6,1.3-1.6,2.1-2.9,2.4c-0.9,0.2-1.7,0-2.3-0.5S130.3,13.6,130.1,12.6z M133.7,7.7
			c-0.8,0.2-1.4,0.7-1.8,1.7c-0.4,1-0.5,1.9-0.3,2.7c0.1,0.6,0.4,1,0.7,1.2s0.8,0.3,1.2,0.3c0.7-0.2,1.3-0.6,1.7-1.4
			c0.4-0.8,0.5-1.8,0.2-3.1C135.3,8,134.7,7.5,133.7,7.7L133.7,7.7z"/>
	</g>
</g>
</svg>
